<mxfile host="Electron" agent="Mozilla/5.0 (Macintosh; Intel Mac OS X 10_15_7) AppleWebKit/537.36 (KHTML, like Gecko) draw.io/24.7.8 Chrome/128.0.6613.36 Electron/32.0.1 Safari/537.36" version="24.7.8" pages="7">
  <diagram id="7uuvqDomjlQr13WNTYXz" name="main">
    <mxGraphModel dx="978" dy="591" grid="1" gridSize="10" guides="1" tooltips="1" connect="1" arrows="1" fold="1" page="1" pageScale="1" pageWidth="1100" pageHeight="850" math="0" shadow="0">
      <root>
        <mxCell id="0" />
        <mxCell id="1" parent="0" />
        <mxCell id="LZAMivedhxL1cJnxeGQ6-1" value="" style="rhombus;whiteSpace=wrap;html=1;rounded=1;fontStyle=1;glass=0;sketch=0;fontSize=12;points=[[0,0.5,0,0,0],[0.5,0,0,0,0],[0.5,1,0,0,0],[1,0.5,0,0,0]];shadow=1;fontFamily=Helvetica;fontColor=default;" parent="1" vertex="1">
          <mxGeometry x="20" y="100" width="40" height="40" as="geometry" />
        </mxCell>
        <mxCell id="LZAMivedhxL1cJnxeGQ6-2" value="" style="rhombus;whiteSpace=wrap;html=1;rounded=1;fontStyle=1;glass=0;sketch=0;fontSize=12;points=[[0,0.5,0,0,0],[0.5,0,0,0,0],[0.5,1,0,0,0],[1,0.5,0,0,0]];shadow=1;fillColor=#0050ef;fontColor=#ffffff;strokeColor=#001DBC;fontFamily=Helvetica;" parent="1" vertex="1">
          <mxGeometry x="810" y="100" width="40" height="40" as="geometry" />
        </mxCell>
        <mxCell id="LZAMivedhxL1cJnxeGQ6-3" value="✗" style="rhombus;whiteSpace=wrap;html=1;rounded=1;fillColor=#0050ef;fontColor=#ffffff;strokeColor=#001DBC;fontStyle=1;glass=0;sketch=0;fontSize=12;points=[[0,0.5,0,0,0],[0.5,0,0,0,0],[0.5,1,0,0,0],[1,0.5,0,0,0]];shadow=1;textOpacity=30;" parent="1" vertex="1">
          <mxGeometry x="810" y="220" width="40" height="40" as="geometry" />
        </mxCell>
        <mxCell id="LZAMivedhxL1cJnxeGQ6-9" style="edgeStyle=orthogonalEdgeStyle;rounded=0;orthogonalLoop=1;jettySize=auto;html=1;exitX=1;exitY=0.5;exitDx=0;exitDy=0;exitPerimeter=0;strokeWidth=2;entryX=0;entryY=0.5;entryDx=0;entryDy=0;entryPerimeter=0;" parent="1" source="LZAMivedhxL1cJnxeGQ6-1" target="LZAMivedhxL1cJnxeGQ6-16" edge="1">
          <mxGeometry relative="1" as="geometry">
            <mxPoint x="103.25" y="120" as="targetPoint" />
            <mxPoint x="55.25" y="120" as="sourcePoint" />
          </mxGeometry>
        </mxCell>
        <mxCell id="LZAMivedhxL1cJnxeGQ6-15" value="Inhale" style="rounded=1;whiteSpace=wrap;sketch=0;container=1;recursiveResize=0;verticalAlign=top;arcSize=6;fontStyle=1;autosize=0;points=[];absoluteArcSize=1;shadow=1;strokeColor=#001DBC;fillColor=#0050ef;fontColor=#ffffff;fontFamily=Helvetica;fontSize=11;labelBackgroundColor=none;opacity=50;" parent="1" vertex="1">
          <mxGeometry x="140" y="80" width="130" height="110" as="geometry">
            <mxRectangle x="-98" y="-1230" width="99" height="26" as="alternateBounds" />
          </mxGeometry>
        </mxCell>
        <mxCell id="LZAMivedhxL1cJnxeGQ6-16" value="" style="rounded=1;whiteSpace=wrap;sketch=0;points=[[0,0.5,0,0,0],[1,0.5,0,0,0]];arcSize=50;fontFamily=Helvetica;fontSize=11;fontColor=default;labelBackgroundColor=none;" parent="LZAMivedhxL1cJnxeGQ6-15" vertex="1">
          <mxGeometry x="-10" y="27.5" width="39.25" height="25" as="geometry" />
        </mxCell>
        <mxCell id="LZAMivedhxL1cJnxeGQ6-17" value="" style="rounded=1;whiteSpace=wrap;sketch=0;points=[[0,0.5,0,0,0],[1,0.5,0,0,0]];fillColor=#1ba1e2;fontColor=#ffffff;strokeColor=#006EAF;arcSize=50;fontFamily=Helvetica;fontSize=11;labelBackgroundColor=none;" parent="LZAMivedhxL1cJnxeGQ6-15" vertex="1">
          <mxGeometry x="110" y="27.5" width="35.25" height="25" as="geometry" />
        </mxCell>
        <mxCell id="LZAMivedhxL1cJnxeGQ6-18" value="✗" style="rounded=1;whiteSpace=wrap;sketch=0;points=[[0,0.5,0,0,0],[1,0.5,0,0,0]];fillColor=#1ba1e2;fontColor=#ffffff;strokeColor=#006EAF;arcSize=50;fontFamily=Helvetica;fontSize=11;textOpacity=30;labelBackgroundColor=none;" parent="LZAMivedhxL1cJnxeGQ6-15" vertex="1">
          <mxGeometry x="110" y="67.5" width="35.25" height="25" as="geometry" />
        </mxCell>
        <mxCell id="LZAMivedhxL1cJnxeGQ6-29" style="edgeStyle=orthogonalEdgeStyle;curved=0;rounded=1;orthogonalLoop=1;jettySize=auto;html=1;exitX=1;exitY=0.5;exitDx=0;exitDy=0;exitPerimeter=0;strokeColor=default;align=center;verticalAlign=middle;fontFamily=Helvetica;fontSize=11;fontColor=default;labelBackgroundColor=default;endArrow=classic;entryX=0;entryY=0.5;entryDx=0;entryDy=0;entryPerimeter=0;dashed=1;dashPattern=1 4;" parent="1" source="LZAMivedhxL1cJnxeGQ6-18" target="LZAMivedhxL1cJnxeGQ6-3" edge="1">
          <mxGeometry relative="1" as="geometry">
            <Array as="points">
              <mxPoint x="320" y="160" />
              <mxPoint x="320" y="240" />
            </Array>
          </mxGeometry>
        </mxCell>
        <mxCell id="bqmPil9-1EwFx2zgqMKI-1" value="RT to Common Lisp" style="rounded=1;sketch=0;container=1;recursiveResize=0;verticalAlign=top;arcSize=6;fontStyle=1;autosize=0;points=[];absoluteArcSize=1;shadow=1;strokeColor=#001DBC;fillColor=#0050ef;fontColor=#ffffff;fontFamily=Helvetica;fontSize=11;labelBackgroundColor=none;" parent="1" vertex="1">
          <mxGeometry x="360" y="80" width="130" height="110" as="geometry">
            <mxRectangle x="-98" y="-1230" width="99" height="26" as="alternateBounds" />
          </mxGeometry>
        </mxCell>
        <mxCell id="bqmPil9-1EwFx2zgqMKI-2" value="" style="rounded=1;whiteSpace=wrap;sketch=0;points=[[0,0.5,0,0,0],[1,0.5,0,0,0]];arcSize=50;fontFamily=Helvetica;fontSize=11;fontColor=default;labelBackgroundColor=none;" parent="bqmPil9-1EwFx2zgqMKI-1" vertex="1">
          <mxGeometry x="-10" y="27.5" width="39.25" height="25" as="geometry" />
        </mxCell>
        <mxCell id="bqmPil9-1EwFx2zgqMKI-3" value="" style="rounded=1;whiteSpace=wrap;sketch=0;points=[[0,0.5,0,0,0],[1,0.5,0,0,0]];fillColor=#1ba1e2;fontColor=#ffffff;strokeColor=#006EAF;arcSize=50;fontFamily=Helvetica;fontSize=11;labelBackgroundColor=none;" parent="bqmPil9-1EwFx2zgqMKI-1" vertex="1">
          <mxGeometry x="110" y="27.5" width="35.25" height="25" as="geometry" />
        </mxCell>
        <mxCell id="bqmPil9-1EwFx2zgqMKI-4" value="✗" style="rounded=1;whiteSpace=wrap;sketch=0;points=[[0,0.5,0,0,0],[1,0.5,0,0,0]];fillColor=#1ba1e2;fontColor=#ffffff;strokeColor=#006EAF;arcSize=50;fontFamily=Helvetica;fontSize=11;textOpacity=30;labelBackgroundColor=none;" parent="bqmPil9-1EwFx2zgqMKI-1" vertex="1">
          <mxGeometry x="110" y="67.5" width="35.25" height="25" as="geometry" />
        </mxCell>
        <mxCell id="bqmPil9-1EwFx2zgqMKI-5" style="edgeStyle=orthogonalEdgeStyle;rounded=1;orthogonalLoop=1;jettySize=auto;html=1;exitX=1;exitY=0.5;exitDx=0;exitDy=0;exitPerimeter=0;entryX=0;entryY=0.5;entryDx=0;entryDy=0;entryPerimeter=0;strokeWidth=2;curved=0;" parent="1" source="LZAMivedhxL1cJnxeGQ6-17" target="bqmPil9-1EwFx2zgqMKI-2" edge="1">
          <mxGeometry relative="1" as="geometry" />
        </mxCell>
        <mxCell id="bqmPil9-1EwFx2zgqMKI-7" style="edgeStyle=orthogonalEdgeStyle;rounded=1;orthogonalLoop=1;jettySize=auto;html=1;entryX=0;entryY=0.5;entryDx=0;entryDy=0;entryPerimeter=0;curved=0;strokeColor=default;dashed=1;dashPattern=1 4;exitX=1;exitY=0.5;exitDx=0;exitDy=0;exitPerimeter=0;" parent="1" source="bqmPil9-1EwFx2zgqMKI-4" target="LZAMivedhxL1cJnxeGQ6-3" edge="1">
          <mxGeometry relative="1" as="geometry">
            <mxPoint x="520" y="180" as="sourcePoint" />
            <Array as="points">
              <mxPoint x="540" y="160" />
              <mxPoint x="540" y="240" />
            </Array>
          </mxGeometry>
        </mxCell>
        <mxCell id="8gXpsizZQ_q2KtkRFCEc-1" value="Exhale Common Lisp" style="rounded=1;whiteSpace=wrap;sketch=0;container=1;recursiveResize=0;verticalAlign=top;arcSize=6;fontStyle=1;autosize=0;points=[];absoluteArcSize=1;shadow=1;strokeColor=#001DBC;fillColor=#0050ef;fontColor=#ffffff;fontFamily=Helvetica;fontSize=11;labelBackgroundColor=none;opacity=50;" parent="1" vertex="1">
          <mxGeometry x="580" y="80" width="130" height="110" as="geometry">
            <mxRectangle x="-98" y="-1230" width="99" height="26" as="alternateBounds" />
          </mxGeometry>
        </mxCell>
        <mxCell id="8gXpsizZQ_q2KtkRFCEc-2" value="" style="rounded=1;whiteSpace=wrap;sketch=0;points=[[0,0.5,0,0,0],[1,0.5,0,0,0]];arcSize=50;fontFamily=Helvetica;fontSize=11;fontColor=default;labelBackgroundColor=none;" parent="8gXpsizZQ_q2KtkRFCEc-1" vertex="1">
          <mxGeometry x="-10" y="27.5" width="39.25" height="25" as="geometry" />
        </mxCell>
        <mxCell id="8gXpsizZQ_q2KtkRFCEc-3" value="" style="rounded=1;whiteSpace=wrap;sketch=0;points=[[0,0.5,0,0,0],[1,0.5,0,0,0]];fillColor=#1ba1e2;fontColor=#ffffff;strokeColor=#006EAF;arcSize=50;fontFamily=Helvetica;fontSize=11;labelBackgroundColor=none;" parent="8gXpsizZQ_q2KtkRFCEc-1" vertex="1">
          <mxGeometry x="110" y="27.5" width="35.25" height="25" as="geometry" />
        </mxCell>
        <mxCell id="8gXpsizZQ_q2KtkRFCEc-4" value="✗" style="rounded=1;whiteSpace=wrap;sketch=0;points=[[0,0.5,0,0,0],[1,0.5,0,0,0]];fillColor=#1ba1e2;fontColor=#ffffff;strokeColor=#006EAF;arcSize=50;fontFamily=Helvetica;fontSize=11;textOpacity=30;labelBackgroundColor=none;" parent="8gXpsizZQ_q2KtkRFCEc-1" vertex="1">
          <mxGeometry x="110" y="67.5" width="35.25" height="25" as="geometry" />
        </mxCell>
        <mxCell id="8gXpsizZQ_q2KtkRFCEc-6" style="edgeStyle=orthogonalEdgeStyle;rounded=1;orthogonalLoop=1;jettySize=auto;html=1;exitX=1;exitY=0.5;exitDx=0;exitDy=0;exitPerimeter=0;entryX=0;entryY=0.5;entryDx=0;entryDy=0;entryPerimeter=0;strokeWidth=2;curved=0;" parent="1" source="8gXpsizZQ_q2KtkRFCEc-3" target="LZAMivedhxL1cJnxeGQ6-2" edge="1">
          <mxGeometry relative="1" as="geometry" />
        </mxCell>
        <mxCell id="8gXpsizZQ_q2KtkRFCEc-7" style="edgeStyle=orthogonalEdgeStyle;rounded=1;orthogonalLoop=1;jettySize=auto;html=1;exitX=1;exitY=0.5;exitDx=0;exitDy=0;exitPerimeter=0;entryX=0;entryY=0.5;entryDx=0;entryDy=0;entryPerimeter=0;curved=0;dashed=1;dashPattern=1 4;" parent="1" source="8gXpsizZQ_q2KtkRFCEc-4" target="LZAMivedhxL1cJnxeGQ6-3" edge="1">
          <mxGeometry relative="1" as="geometry" />
        </mxCell>
        <mxCell id="SOxFIMe7PkMnrxHXSoTj-8" style="edgeStyle=orthogonalEdgeStyle;rounded=1;orthogonalLoop=1;jettySize=auto;html=1;exitX=1;exitY=0.5;exitDx=0;exitDy=0;exitPerimeter=0;curved=0;strokeWidth=2;entryX=0;entryY=0.5;entryDx=0;entryDy=0;entryPerimeter=0;" parent="1" source="bqmPil9-1EwFx2zgqMKI-3" target="8gXpsizZQ_q2KtkRFCEc-2" edge="1">
          <mxGeometry relative="1" as="geometry">
            <mxPoint x="550" y="100" as="targetPoint" />
            <Array as="points">
              <mxPoint x="530" y="120" />
              <mxPoint x="530" y="121" />
            </Array>
          </mxGeometry>
        </mxCell>
      </root>
    </mxGraphModel>
  </diagram>
  <diagram id="kfDFgN6jVAJmqFf7D7LI" name="Inhale">
    <mxGraphModel dx="978" dy="591" grid="1" gridSize="10" guides="1" tooltips="1" connect="1" arrows="1" fold="1" page="1" pageScale="1" pageWidth="1100" pageHeight="850" math="0" shadow="0">
      <root>
        <mxCell id="0" />
        <mxCell id="1" parent="0" />
        <mxCell id="Ks3u7ii3O0ToyFJfyuOW-1" value="" style="rhombus;whiteSpace=wrap;html=1;rounded=1;fontStyle=1;glass=0;sketch=0;fontSize=12;points=[[0,0.5,0,0,0],[0.5,0,0,0,0],[0.5,1,0,0,0],[1,0.5,0,0,0]];shadow=1;fontFamily=Helvetica;fontColor=default;" parent="1" vertex="1">
          <mxGeometry x="20" y="140" width="40" height="40" as="geometry" />
        </mxCell>
        <mxCell id="Ks3u7ii3O0ToyFJfyuOW-2" value="" style="rhombus;whiteSpace=wrap;html=1;rounded=1;fontStyle=1;glass=0;sketch=0;fontSize=12;points=[[0,0.5,0,0,0],[0.5,0,0,0,0],[0.5,1,0,0,0],[1,0.5,0,0,0]];shadow=1;fillColor=#0050ef;fontColor=#ffffff;strokeColor=#001DBC;fontFamily=Helvetica;" parent="1" vertex="1">
          <mxGeometry x="930" y="140" width="40" height="40" as="geometry" />
        </mxCell>
        <mxCell id="Ks3u7ii3O0ToyFJfyuOW-3" value="✗" style="rhombus;whiteSpace=wrap;html=1;rounded=1;fillColor=#0050ef;fontColor=#ffffff;strokeColor=#001DBC;fontStyle=1;glass=0;sketch=0;fontSize=12;points=[[0,0.5,0,0,0],[0.5,0,0,0,0],[0.5,1,0,0,0],[1,0.5,0,0,0]];shadow=1;textOpacity=30;" parent="1" vertex="1">
          <mxGeometry x="930" y="260" width="40" height="40" as="geometry" />
        </mxCell>
        <mxCell id="Ks3u7ii3O0ToyFJfyuOW-4" value="$ node t2t.mjs internalize.ohm internalize.rewrite -" style="rounded=1;sketch=0;container=1;recursiveResize=0;verticalAlign=top;arcSize=6;fontStyle=1;autosize=0;points=[];absoluteArcSize=1;shadow=1;strokeColor=#001DBC;fillColor=#0050ef;fontColor=#ffffff;fontFamily=Helvetica;fontSize=11;" parent="1" vertex="1">
          <mxGeometry x="375" y="120" width="325" height="110" as="geometry">
            <mxRectangle x="-98" y="-1230" width="99" height="26" as="alternateBounds" />
          </mxGeometry>
        </mxCell>
        <mxCell id="Ks3u7ii3O0ToyFJfyuOW-5" value="" style="rounded=1;whiteSpace=wrap;html=1;sketch=0;points=[[0,0.5,0,0,0],[1,0.5,0,0,0]];arcSize=50;fontFamily=Helvetica;fontSize=11;fontColor=default;" parent="Ks3u7ii3O0ToyFJfyuOW-4" vertex="1">
          <mxGeometry x="-10" y="27.5" width="39.25" height="25" as="geometry" />
        </mxCell>
        <mxCell id="Ks3u7ii3O0ToyFJfyuOW-6" value="" style="rounded=1;whiteSpace=wrap;html=1;sketch=0;points=[[0,0.5,0,0,0],[1,0.5,0,0,0]];fillColor=#1ba1e2;fontColor=#ffffff;strokeColor=#006EAF;arcSize=50;fontFamily=Helvetica;fontSize=11;" parent="Ks3u7ii3O0ToyFJfyuOW-4" vertex="1">
          <mxGeometry x="305" y="27.5" width="35.25" height="25" as="geometry" />
        </mxCell>
        <mxCell id="Ks3u7ii3O0ToyFJfyuOW-7" value="✗" style="rounded=1;whiteSpace=wrap;html=1;sketch=0;points=[[0,0.5,0,0,0],[1,0.5,0,0,0]];fillColor=#1ba1e2;fontColor=#ffffff;strokeColor=#006EAF;arcSize=50;fontFamily=Helvetica;fontSize=11;textOpacity=30;" parent="Ks3u7ii3O0ToyFJfyuOW-4" vertex="1">
          <mxGeometry x="305" y="67.5" width="35.25" height="25" as="geometry" />
        </mxCell>
        <mxCell id="9mrEhQ7L3UbmY7ntviBm-1" value="👀" style="rounded=1;whiteSpace=wrap;sketch=0;points=[[0,0.5,0,0,0],[1,0.5,0,0,0]];fillColor=#1ba1e2;fontColor=#ffffff;strokeColor=#006EAF;arcSize=50;fontFamily=Helvetica;fontSize=11;labelBackgroundColor=none;" vertex="1" parent="Ks3u7ii3O0ToyFJfyuOW-4">
          <mxGeometry x="140" y="80" width="35.25" height="25" as="geometry" />
        </mxCell>
        <mxCell id="Ks3u7ii3O0ToyFJfyuOW-9" style="edgeStyle=orthogonalEdgeStyle;rounded=0;orthogonalLoop=1;jettySize=auto;html=1;exitX=1;exitY=0.5;exitDx=0;exitDy=0;exitPerimeter=0;strokeWidth=2;entryX=0;entryY=0.5;entryDx=0;entryDy=0;entryPerimeter=0;" parent="1" source="Ks3u7ii3O0ToyFJfyuOW-6" target="Ks3u7ii3O0ToyFJfyuOW-2" edge="1">
          <mxGeometry relative="1" as="geometry">
            <mxPoint x="595" y="160" as="targetPoint" />
          </mxGeometry>
        </mxCell>
        <mxCell id="Ks3u7ii3O0ToyFJfyuOW-10" style="edgeStyle=orthogonalEdgeStyle;rounded=1;orthogonalLoop=1;jettySize=auto;html=1;exitX=1;exitY=0.5;exitDx=0;exitDy=0;exitPerimeter=0;entryX=0;entryY=0.5;entryDx=0;entryDy=0;entryPerimeter=0;curved=0;" parent="1" source="Ks3u7ii3O0ToyFJfyuOW-7" target="Ks3u7ii3O0ToyFJfyuOW-3" edge="1">
          <mxGeometry relative="1" as="geometry">
            <Array as="points">
              <mxPoint x="750" y="200" />
              <mxPoint x="750" y="280" />
            </Array>
          </mxGeometry>
        </mxCell>
        <mxCell id="mPg0oo0mx1sWg0ei-3gz-1" value="Read Text File" style="rounded=1;sketch=0;container=1;recursiveResize=0;verticalAlign=top;arcSize=6;fontStyle=1;autosize=0;points=[];absoluteArcSize=1;shadow=1;strokeColor=#001DBC;fillColor=#0050ef;fontColor=#ffffff;fontFamily=Helvetica;fontSize=11;" parent="1" vertex="1">
          <mxGeometry x="140" y="120" width="130" height="110" as="geometry">
            <mxRectangle x="-98" y="-1230" width="99" height="26" as="alternateBounds" />
          </mxGeometry>
        </mxCell>
        <mxCell id="mPg0oo0mx1sWg0ei-3gz-2" value="" style="rounded=1;whiteSpace=wrap;html=1;sketch=0;points=[[0,0.5,0,0,0],[1,0.5,0,0,0]];arcSize=50;fontFamily=Helvetica;fontSize=11;fontColor=default;" parent="mPg0oo0mx1sWg0ei-3gz-1" vertex="1">
          <mxGeometry x="-10" y="27.5" width="39.25" height="25" as="geometry" />
        </mxCell>
        <mxCell id="mPg0oo0mx1sWg0ei-3gz-3" value="" style="rounded=1;whiteSpace=wrap;html=1;sketch=0;points=[[0,0.5,0,0,0],[1,0.5,0,0,0]];fillColor=#1ba1e2;fontColor=#ffffff;strokeColor=#006EAF;arcSize=50;fontFamily=Helvetica;fontSize=11;" parent="mPg0oo0mx1sWg0ei-3gz-1" vertex="1">
          <mxGeometry x="110" y="27.5" width="35.25" height="25" as="geometry" />
        </mxCell>
        <mxCell id="mPg0oo0mx1sWg0ei-3gz-4" value="✗" style="rounded=1;whiteSpace=wrap;html=1;sketch=0;points=[[0,0.5,0,0,0],[1,0.5,0,0,0]];fillColor=#1ba1e2;fontColor=#ffffff;strokeColor=#006EAF;arcSize=50;fontFamily=Helvetica;fontSize=11;textOpacity=30;" parent="mPg0oo0mx1sWg0ei-3gz-1" vertex="1">
          <mxGeometry x="110" y="67.5" width="35.25" height="25" as="geometry" />
        </mxCell>
        <mxCell id="mPg0oo0mx1sWg0ei-3gz-5" style="edgeStyle=orthogonalEdgeStyle;rounded=0;orthogonalLoop=1;jettySize=auto;html=1;entryX=0;entryY=0.5;entryDx=0;entryDy=0;entryPerimeter=0;strokeWidth=2;" parent="1" source="Ks3u7ii3O0ToyFJfyuOW-1" target="mPg0oo0mx1sWg0ei-3gz-2" edge="1">
          <mxGeometry relative="1" as="geometry" />
        </mxCell>
        <mxCell id="mPg0oo0mx1sWg0ei-3gz-6" style="edgeStyle=orthogonalEdgeStyle;rounded=0;orthogonalLoop=1;jettySize=auto;html=1;entryX=0;entryY=0.5;entryDx=0;entryDy=0;entryPerimeter=0;strokeWidth=2;" parent="1" source="mPg0oo0mx1sWg0ei-3gz-3" target="Ks3u7ii3O0ToyFJfyuOW-5" edge="1">
          <mxGeometry relative="1" as="geometry" />
        </mxCell>
        <mxCell id="9mrEhQ7L3UbmY7ntviBm-2" value="trash" style="rounded=1;whiteSpace=wrap;html=1;sketch=0;container=1;recursiveResize=0;verticalAlign=bottom;arcSize=6;fontStyle=0;autosize=0;points=[];absoluteArcSize=1;shadow=0;strokeColor=#d79b00;fillColor=#FFFFFF;fontFamily=Helvetica;fontSize=11;dashed=1;opacity=30;align=right;textOpacity=30;gradientColor=#EA6B66;fontColor=default;" vertex="1" parent="1">
          <mxGeometry x="640" y="360" width="40" height="50" as="geometry">
            <mxRectangle x="-98" y="-1230" width="99" height="26" as="alternateBounds" />
          </mxGeometry>
        </mxCell>
        <mxCell id="9mrEhQ7L3UbmY7ntviBm-3" value="" style="rounded=1;whiteSpace=wrap;html=1;sketch=0;points=[[0,0.5,0,0,0],[1,0.5,0,0,0]];arcSize=50;fontFamily=Helvetica;fontSize=11;fontColor=default;dashed=1;textOpacity=50;opacity=30;fontStyle=0" vertex="1" parent="9mrEhQ7L3UbmY7ntviBm-2">
          <mxGeometry x="-12" y="12.5" width="39.25" height="25" as="geometry" />
        </mxCell>
        <mxCell id="9mrEhQ7L3UbmY7ntviBm-4" style="edgeStyle=orthogonalEdgeStyle;rounded=0;orthogonalLoop=1;jettySize=auto;html=1;entryX=0;entryY=0.5;entryDx=0;entryDy=0;entryPerimeter=0;exitX=0.511;exitY=1.04;exitDx=0;exitDy=0;exitPerimeter=0;" edge="1" parent="1" source="9mrEhQ7L3UbmY7ntviBm-1" target="9mrEhQ7L3UbmY7ntviBm-3">
          <mxGeometry relative="1" as="geometry" />
        </mxCell>
      </root>
    </mxGraphModel>
  </diagram>
  <diagram name="Uninternalize" id="yR5oZ1h_S7ZLmSGezaBp">
    <mxGraphModel dx="978" dy="591" grid="1" gridSize="10" guides="1" tooltips="1" connect="1" arrows="1" fold="1" page="1" pageScale="1" pageWidth="1100" pageHeight="850" math="0" shadow="0">
      <root>
        <mxCell id="c91dSZDJYJj_W9c63cXH-0" />
        <mxCell id="c91dSZDJYJj_W9c63cXH-1" parent="c91dSZDJYJj_W9c63cXH-0" />
        <mxCell id="c91dSZDJYJj_W9c63cXH-2" value="" style="rhombus;whiteSpace=wrap;html=1;rounded=1;fontStyle=1;glass=0;sketch=0;fontSize=12;points=[[0,0.5,0,0,0],[0.5,0,0,0,0],[0.5,1,0,0,0],[1,0.5,0,0,0]];shadow=1;fontFamily=Helvetica;fontColor=default;" parent="c91dSZDJYJj_W9c63cXH-1" vertex="1">
          <mxGeometry x="20" y="140" width="40" height="40" as="geometry" />
        </mxCell>
        <mxCell id="c91dSZDJYJj_W9c63cXH-3" value="" style="rhombus;whiteSpace=wrap;html=1;rounded=1;fontStyle=1;glass=0;sketch=0;fontSize=12;points=[[0,0.5,0,0,0],[0.5,0,0,0,0],[0.5,1,0,0,0],[1,0.5,0,0,0]];shadow=1;fillColor=#0050ef;fontColor=#ffffff;strokeColor=#001DBC;fontFamily=Helvetica;" parent="c91dSZDJYJj_W9c63cXH-1" vertex="1">
          <mxGeometry x="360" y="140" width="40" height="40" as="geometry" />
        </mxCell>
        <mxCell id="c91dSZDJYJj_W9c63cXH-4" value="✗" style="rhombus;whiteSpace=wrap;html=1;rounded=1;fillColor=#0050ef;fontColor=#ffffff;strokeColor=#001DBC;fontStyle=1;glass=0;sketch=0;fontSize=12;points=[[0,0.5,0,0,0],[0.5,0,0,0,0],[0.5,1,0,0,0],[1,0.5,0,0,0]];shadow=1;textOpacity=30;" parent="c91dSZDJYJj_W9c63cXH-1" vertex="1">
          <mxGeometry x="360" y="260" width="40" height="40" as="geometry" />
        </mxCell>
        <mxCell id="c91dSZDJYJj_W9c63cXH-5" value="$ node unencode.mjs" style="rounded=1;sketch=0;container=1;recursiveResize=0;verticalAlign=top;arcSize=6;fontStyle=1;autosize=0;points=[];absoluteArcSize=1;shadow=1;strokeColor=#001DBC;fillColor=#0050ef;fontColor=#ffffff;fontFamily=Helvetica;fontSize=11;" parent="c91dSZDJYJj_W9c63cXH-1" vertex="1">
          <mxGeometry x="130" y="120" width="130" height="110" as="geometry">
            <mxRectangle x="-98" y="-1230" width="99" height="26" as="alternateBounds" />
          </mxGeometry>
        </mxCell>
        <mxCell id="c91dSZDJYJj_W9c63cXH-6" value="" style="rounded=1;whiteSpace=wrap;html=1;sketch=0;points=[[0,0.5,0,0,0],[1,0.5,0,0,0]];arcSize=50;fontFamily=Helvetica;fontSize=11;fontColor=default;" parent="c91dSZDJYJj_W9c63cXH-5" vertex="1">
          <mxGeometry x="-10" y="27.5" width="39.25" height="25" as="geometry" />
        </mxCell>
        <mxCell id="c91dSZDJYJj_W9c63cXH-7" value="" style="rounded=1;whiteSpace=wrap;html=1;sketch=0;points=[[0,0.5,0,0,0],[1,0.5,0,0,0]];fillColor=#1ba1e2;fontColor=#ffffff;strokeColor=#006EAF;arcSize=50;fontFamily=Helvetica;fontSize=11;" parent="c91dSZDJYJj_W9c63cXH-5" vertex="1">
          <mxGeometry x="110" y="27.5" width="35.25" height="25" as="geometry" />
        </mxCell>
        <mxCell id="c91dSZDJYJj_W9c63cXH-8" value="✗" style="rounded=1;whiteSpace=wrap;html=1;sketch=0;points=[[0,0.5,0,0,0],[1,0.5,0,0,0]];fillColor=#1ba1e2;fontColor=#ffffff;strokeColor=#006EAF;arcSize=50;fontFamily=Helvetica;fontSize=11;textOpacity=30;" parent="c91dSZDJYJj_W9c63cXH-5" vertex="1">
          <mxGeometry x="110" y="67.5" width="35.25" height="25" as="geometry" />
        </mxCell>
        <mxCell id="c91dSZDJYJj_W9c63cXH-9" style="edgeStyle=orthogonalEdgeStyle;rounded=0;orthogonalLoop=1;jettySize=auto;html=1;exitX=1;exitY=0.5;exitDx=0;exitDy=0;exitPerimeter=0;entryX=0;entryY=0.5;entryDx=0;entryDy=0;entryPerimeter=0;strokeWidth=2;" parent="c91dSZDJYJj_W9c63cXH-1" source="c91dSZDJYJj_W9c63cXH-2" target="c91dSZDJYJj_W9c63cXH-6" edge="1">
          <mxGeometry relative="1" as="geometry" />
        </mxCell>
        <mxCell id="c91dSZDJYJj_W9c63cXH-10" style="edgeStyle=orthogonalEdgeStyle;rounded=0;orthogonalLoop=1;jettySize=auto;html=1;exitX=1;exitY=0.5;exitDx=0;exitDy=0;exitPerimeter=0;strokeWidth=2;entryX=0;entryY=0.5;entryDx=0;entryDy=0;entryPerimeter=0;" parent="c91dSZDJYJj_W9c63cXH-1" source="c91dSZDJYJj_W9c63cXH-7" target="c91dSZDJYJj_W9c63cXH-3" edge="1">
          <mxGeometry relative="1" as="geometry">
            <mxPoint x="350" y="160" as="targetPoint" />
          </mxGeometry>
        </mxCell>
        <mxCell id="c91dSZDJYJj_W9c63cXH-11" style="edgeStyle=orthogonalEdgeStyle;rounded=1;orthogonalLoop=1;jettySize=auto;html=1;exitX=1;exitY=0.5;exitDx=0;exitDy=0;exitPerimeter=0;entryX=0;entryY=0.5;entryDx=0;entryDy=0;entryPerimeter=0;curved=0;" parent="c91dSZDJYJj_W9c63cXH-1" source="c91dSZDJYJj_W9c63cXH-8" target="c91dSZDJYJj_W9c63cXH-4" edge="1">
          <mxGeometry relative="1" as="geometry">
            <Array as="points">
              <mxPoint x="300" y="200" />
              <mxPoint x="300" y="280" />
            </Array>
          </mxGeometry>
        </mxCell>
      </root>
    </mxGraphModel>
  </diagram>
  <diagram id="DWxpu4sDnWmoSE2PDSY-" name="Decode For Common Lisp">
    <mxGraphModel dx="978" dy="591" grid="1" gridSize="10" guides="1" tooltips="1" connect="1" arrows="1" fold="1" page="1" pageScale="1" pageWidth="1100" pageHeight="850" math="0" shadow="0">
      <root>
        <mxCell id="0" />
        <mxCell id="1" parent="0" />
        <mxCell id="d5O_rO45kLhP89n0BcdW-1" value="" style="rhombus;whiteSpace=wrap;html=1;rounded=1;fontStyle=1;glass=0;sketch=0;fontSize=12;points=[[0,0.5,0,0,0],[0.5,0,0,0,0],[0.5,1,0,0,0],[1,0.5,0,0,0]];shadow=1;fontFamily=Helvetica;fontColor=default;" parent="1" vertex="1">
          <mxGeometry x="20" y="140" width="40" height="40" as="geometry" />
        </mxCell>
        <mxCell id="d5O_rO45kLhP89n0BcdW-2" value="" style="rhombus;whiteSpace=wrap;html=1;rounded=1;fontStyle=1;glass=0;sketch=0;fontSize=12;points=[[0,0.5,0,0,0],[0.5,0,0,0,0],[0.5,1,0,0,0],[1,0.5,0,0,0]];shadow=1;fillColor=#0050ef;fontColor=#ffffff;strokeColor=#001DBC;fontFamily=Helvetica;" parent="1" vertex="1">
          <mxGeometry x="440" y="140" width="40" height="40" as="geometry" />
        </mxCell>
        <mxCell id="d5O_rO45kLhP89n0BcdW-3" value="✗" style="rhombus;whiteSpace=wrap;html=1;rounded=1;fillColor=#0050ef;fontColor=#ffffff;strokeColor=#001DBC;fontStyle=1;glass=0;sketch=0;fontSize=12;points=[[0,0.5,0,0,0],[0.5,0,0,0,0],[0.5,1,0,0,0],[1,0.5,0,0,0]];shadow=1;textOpacity=30;" parent="1" vertex="1">
          <mxGeometry x="440" y="260" width="40" height="40" as="geometry" />
        </mxCell>
        <mxCell id="d5O_rO45kLhP89n0BcdW-4" value="$ node t2t.mjs cldecode.ohm cldecode.rewrite -" style="rounded=1;sketch=0;container=1;recursiveResize=0;verticalAlign=top;arcSize=6;fontStyle=1;autosize=0;points=[];absoluteArcSize=1;shadow=1;strokeColor=#001DBC;fillColor=#0050ef;fontColor=#ffffff;fontFamily=Helvetica;fontSize=11;" parent="1" vertex="1">
          <mxGeometry x="130" y="120" width="190" height="110" as="geometry">
            <mxRectangle x="-98" y="-1230" width="99" height="26" as="alternateBounds" />
          </mxGeometry>
        </mxCell>
        <mxCell id="d5O_rO45kLhP89n0BcdW-5" value="" style="rounded=1;whiteSpace=wrap;html=1;sketch=0;points=[[0,0.5,0,0,0],[1,0.5,0,0,0]];arcSize=50;fontFamily=Helvetica;fontSize=11;fontColor=default;" parent="d5O_rO45kLhP89n0BcdW-4" vertex="1">
          <mxGeometry x="-10" y="27.5" width="39.25" height="25" as="geometry" />
        </mxCell>
        <mxCell id="d5O_rO45kLhP89n0BcdW-6" value="" style="rounded=1;whiteSpace=wrap;html=1;sketch=0;points=[[0,0.5,0,0,0],[1,0.5,0,0,0]];fillColor=#1ba1e2;fontColor=#ffffff;strokeColor=#006EAF;arcSize=50;fontFamily=Helvetica;fontSize=11;" parent="d5O_rO45kLhP89n0BcdW-4" vertex="1">
          <mxGeometry x="170" y="27.5" width="35.25" height="25" as="geometry" />
        </mxCell>
        <mxCell id="d5O_rO45kLhP89n0BcdW-7" value="✗" style="rounded=1;whiteSpace=wrap;html=1;sketch=0;points=[[0,0.5,0,0,0],[1,0.5,0,0,0]];fillColor=#1ba1e2;fontColor=#ffffff;strokeColor=#006EAF;arcSize=50;fontFamily=Helvetica;fontSize=11;textOpacity=30;" parent="d5O_rO45kLhP89n0BcdW-4" vertex="1">
          <mxGeometry x="170" y="67.5" width="35.25" height="25" as="geometry" />
        </mxCell>
        <mxCell id="d5O_rO45kLhP89n0BcdW-8" style="edgeStyle=orthogonalEdgeStyle;rounded=0;orthogonalLoop=1;jettySize=auto;html=1;exitX=1;exitY=0.5;exitDx=0;exitDy=0;exitPerimeter=0;entryX=0;entryY=0.5;entryDx=0;entryDy=0;entryPerimeter=0;strokeWidth=2;" parent="1" source="d5O_rO45kLhP89n0BcdW-1" target="d5O_rO45kLhP89n0BcdW-5" edge="1">
          <mxGeometry relative="1" as="geometry" />
        </mxCell>
        <mxCell id="d5O_rO45kLhP89n0BcdW-9" style="edgeStyle=orthogonalEdgeStyle;rounded=0;orthogonalLoop=1;jettySize=auto;html=1;exitX=1;exitY=0.5;exitDx=0;exitDy=0;exitPerimeter=0;strokeWidth=2;entryX=0;entryY=0.5;entryDx=0;entryDy=0;entryPerimeter=0;" parent="1" source="d5O_rO45kLhP89n0BcdW-6" target="d5O_rO45kLhP89n0BcdW-2" edge="1">
          <mxGeometry relative="1" as="geometry">
            <mxPoint x="350" y="160" as="targetPoint" />
          </mxGeometry>
        </mxCell>
        <mxCell id="d5O_rO45kLhP89n0BcdW-10" style="edgeStyle=orthogonalEdgeStyle;rounded=1;orthogonalLoop=1;jettySize=auto;html=1;exitX=1;exitY=0.5;exitDx=0;exitDy=0;exitPerimeter=0;entryX=0;entryY=0.5;entryDx=0;entryDy=0;entryPerimeter=0;curved=0;" parent="1" source="d5O_rO45kLhP89n0BcdW-7" target="d5O_rO45kLhP89n0BcdW-3" edge="1">
          <mxGeometry relative="1" as="geometry">
            <Array as="points">
              <mxPoint x="360" y="200" />
              <mxPoint x="360" y="280" />
            </Array>
          </mxGeometry>
        </mxCell>
      </root>
    </mxGraphModel>
  </diagram>
  <diagram id="QfMkjQi60-kuk4cKw3E2" name="RT to Common Lisp">
    <mxGraphModel dx="1430" dy="625" grid="1" gridSize="10" guides="1" tooltips="1" connect="1" arrows="1" fold="1" page="1" pageScale="1" pageWidth="1100" pageHeight="850" math="0" shadow="0">
      <root>
        <mxCell id="0" />
        <mxCell id="1" parent="0" />
        <mxCell id="IO6PlH4Jl6gjGxsQ-cl9-1" value="" style="rhombus;whiteSpace=wrap;html=1;rounded=1;fontStyle=1;glass=0;sketch=0;fontSize=12;points=[[0,0.5,0,0,0],[0.5,0,0,0,0],[0.5,1,0,0,0],[1,0.5,0,0,0]];shadow=1;fontFamily=Helvetica;fontColor=default;" parent="1" vertex="1">
          <mxGeometry x="20" y="140" width="40" height="40" as="geometry" />
        </mxCell>
        <mxCell id="IO6PlH4Jl6gjGxsQ-cl9-2" value="" style="rhombus;whiteSpace=wrap;html=1;rounded=1;fontStyle=1;glass=0;sketch=0;fontSize=12;points=[[0,0.5,0,0,0],[0.5,0,0,0,0],[0.5,1,0,0,0],[1,0.5,0,0,0]];shadow=1;fillColor=#0050ef;fontColor=#ffffff;strokeColor=#001DBC;fontFamily=Helvetica;" parent="1" vertex="1">
          <mxGeometry x="440" y="140" width="40" height="40" as="geometry" />
        </mxCell>
        <mxCell id="IO6PlH4Jl6gjGxsQ-cl9-3" value="✗" style="rhombus;whiteSpace=wrap;html=1;rounded=1;fillColor=#0050ef;fontColor=#ffffff;strokeColor=#001DBC;fontStyle=1;glass=0;sketch=0;fontSize=12;points=[[0,0.5,0,0,0],[0.5,0,0,0,0],[0.5,1,0,0,0],[1,0.5,0,0,0]];shadow=1;textOpacity=30;" parent="1" vertex="1">
          <mxGeometry x="440" y="260" width="40" height="40" as="geometry" />
        </mxCell>
        <mxCell id="IO6PlH4Jl6gjGxsQ-cl9-4" value="$ node t2t.mjs rt.ohm rt2cl.rewrite -" style="rounded=1;sketch=0;container=1;recursiveResize=0;verticalAlign=top;arcSize=6;fontStyle=1;autosize=0;points=[];absoluteArcSize=1;shadow=1;strokeColor=#001DBC;fillColor=#0050ef;fontColor=#ffffff;fontFamily=Helvetica;fontSize=11;" parent="1" vertex="1">
          <mxGeometry x="130" y="120" width="190" height="110" as="geometry">
            <mxRectangle x="-98" y="-1230" width="99" height="26" as="alternateBounds" />
          </mxGeometry>
        </mxCell>
        <mxCell id="IO6PlH4Jl6gjGxsQ-cl9-5" value="" style="rounded=1;whiteSpace=wrap;html=1;sketch=0;points=[[0,0.5,0,0,0],[1,0.5,0,0,0]];arcSize=50;fontFamily=Helvetica;fontSize=11;fontColor=default;" parent="IO6PlH4Jl6gjGxsQ-cl9-4" vertex="1">
          <mxGeometry x="-10" y="27.5" width="39.25" height="25" as="geometry" />
        </mxCell>
        <mxCell id="IO6PlH4Jl6gjGxsQ-cl9-6" value="" style="rounded=1;whiteSpace=wrap;html=1;sketch=0;points=[[0,0.5,0,0,0],[1,0.5,0,0,0]];fillColor=#1ba1e2;fontColor=#ffffff;strokeColor=#006EAF;arcSize=50;fontFamily=Helvetica;fontSize=11;" parent="IO6PlH4Jl6gjGxsQ-cl9-4" vertex="1">
          <mxGeometry x="170" y="27.5" width="35.25" height="25" as="geometry" />
        </mxCell>
        <mxCell id="IO6PlH4Jl6gjGxsQ-cl9-7" value="✗" style="rounded=1;whiteSpace=wrap;html=1;sketch=0;points=[[0,0.5,0,0,0],[1,0.5,0,0,0]];fillColor=#1ba1e2;fontColor=#ffffff;strokeColor=#006EAF;arcSize=50;fontFamily=Helvetica;fontSize=11;textOpacity=30;" parent="IO6PlH4Jl6gjGxsQ-cl9-4" vertex="1">
          <mxGeometry x="170" y="67.5" width="35.25" height="25" as="geometry" />
        </mxCell>
        <mxCell id="RybCDVvAgoM5EoYZS_LS-1" value="👀" style="rounded=1;whiteSpace=wrap;sketch=0;points=[[0,0.5,0,0,0],[1,0.5,0,0,0]];fillColor=#1ba1e2;fontColor=#ffffff;strokeColor=#006EAF;arcSize=50;fontFamily=Helvetica;fontSize=11;labelBackgroundColor=none;" vertex="1" parent="IO6PlH4Jl6gjGxsQ-cl9-4">
          <mxGeometry x="77.37" y="85" width="35.25" height="25" as="geometry" />
        </mxCell>
        <mxCell id="IO6PlH4Jl6gjGxsQ-cl9-8" style="edgeStyle=orthogonalEdgeStyle;rounded=0;orthogonalLoop=1;jettySize=auto;html=1;exitX=1;exitY=0.5;exitDx=0;exitDy=0;exitPerimeter=0;entryX=0;entryY=0.5;entryDx=0;entryDy=0;entryPerimeter=0;strokeWidth=2;" parent="1" source="IO6PlH4Jl6gjGxsQ-cl9-1" target="IO6PlH4Jl6gjGxsQ-cl9-5" edge="1">
          <mxGeometry relative="1" as="geometry" />
        </mxCell>
        <mxCell id="IO6PlH4Jl6gjGxsQ-cl9-9" style="edgeStyle=orthogonalEdgeStyle;rounded=0;orthogonalLoop=1;jettySize=auto;html=1;exitX=1;exitY=0.5;exitDx=0;exitDy=0;exitPerimeter=0;strokeWidth=2;entryX=0;entryY=0.5;entryDx=0;entryDy=0;entryPerimeter=0;" parent="1" source="IO6PlH4Jl6gjGxsQ-cl9-6" target="IO6PlH4Jl6gjGxsQ-cl9-2" edge="1">
          <mxGeometry relative="1" as="geometry">
            <mxPoint x="350" y="160" as="targetPoint" />
          </mxGeometry>
        </mxCell>
        <mxCell id="IO6PlH4Jl6gjGxsQ-cl9-10" style="edgeStyle=orthogonalEdgeStyle;rounded=1;orthogonalLoop=1;jettySize=auto;html=1;exitX=1;exitY=0.5;exitDx=0;exitDy=0;exitPerimeter=0;entryX=0;entryY=0.5;entryDx=0;entryDy=0;entryPerimeter=0;curved=0;dashed=1;dashPattern=1 4;" parent="1" source="IO6PlH4Jl6gjGxsQ-cl9-7" target="IO6PlH4Jl6gjGxsQ-cl9-3" edge="1">
          <mxGeometry relative="1" as="geometry">
            <Array as="points">
              <mxPoint x="360" y="200" />
              <mxPoint x="360" y="280" />
            </Array>
          </mxGeometry>
        </mxCell>
        <mxCell id="Apn0ms_BU9joJsDJkQgn-1" value="?B" style="rounded=1;whiteSpace=wrap;html=1;sketch=0;container=1;recursiveResize=0;verticalAlign=bottom;arcSize=6;fontStyle=0;autosize=0;points=[];absoluteArcSize=1;shadow=0;strokeColor=#d79b00;fillColor=#FFFFFF;fontFamily=Helvetica;fontSize=11;dashed=1;opacity=30;align=right;textOpacity=30;gradientColor=#EA6B66;fontColor=default;" vertex="1" parent="1">
          <mxGeometry x="960" y="458.5" width="40" height="50" as="geometry">
            <mxRectangle x="-98" y="-1230" width="99" height="26" as="alternateBounds" />
          </mxGeometry>
        </mxCell>
        <mxCell id="Apn0ms_BU9joJsDJkQgn-2" value="" style="rounded=1;whiteSpace=wrap;html=1;sketch=0;points=[[0,0.5,0,0,0],[1,0.5,0,0,0]];arcSize=50;fontFamily=Helvetica;fontSize=11;fontColor=default;dashed=1;textOpacity=50;opacity=30;fontStyle=0" vertex="1" parent="Apn0ms_BU9joJsDJkQgn-1">
          <mxGeometry x="-12" y="12.5" width="39.25" height="25" as="geometry" />
        </mxCell>
        <mxCell id="Apn0ms_BU9joJsDJkQgn-3" value="$ grep -v &quot;char_any&quot;" style="rounded=1;whiteSpace=wrap;html=1;sketch=0;container=1;recursiveResize=0;verticalAlign=top;arcSize=6;fontStyle=1;autosize=0;points=[];absoluteArcSize=1;shadow=1;strokeColor=#666666;fillColor=#FFFFFF;fontColor=#333333;connectable=0;gradientColor=#FFF2CC;fontFamily=Helvetica;fontSize=11;" vertex="1" parent="1">
          <mxGeometry x="320" y="440" width="127" height="87" as="geometry">
            <mxRectangle x="-98" y="-1230" width="99" height="26" as="alternateBounds" />
          </mxGeometry>
        </mxCell>
        <mxCell id="Apn0ms_BU9joJsDJkQgn-4" value="" style="rounded=1;whiteSpace=wrap;html=1;sketch=0;points=[[0,0.5,0,0,0],[1,0.5,0,0,0]];arcSize=50;fontFamily=Helvetica;fontSize=11;fontColor=default;" vertex="1" parent="Apn0ms_BU9joJsDJkQgn-3">
          <mxGeometry x="-13" y="36" width="39.25" height="25" as="geometry" />
        </mxCell>
        <mxCell id="Apn0ms_BU9joJsDJkQgn-5" value="" style="rounded=1;whiteSpace=wrap;html=1;sketch=0;points=[[0,0.5,0,0,0],[1,0.5,0,0,0]];fillColor=#1ba1e2;fontColor=#ffffff;strokeColor=#006EAF;arcSize=50;fontFamily=Helvetica;fontSize=11;" vertex="1" parent="Apn0ms_BU9joJsDJkQgn-3">
          <mxGeometry x="107" y="36" width="35.25" height="25" as="geometry" />
        </mxCell>
        <mxCell id="Apn0ms_BU9joJsDJkQgn-6" value="$ grep -v &quot;nameRest&quot;" style="rounded=1;whiteSpace=wrap;html=1;sketch=0;container=1;recursiveResize=0;verticalAlign=top;arcSize=6;fontStyle=1;autosize=0;points=[];absoluteArcSize=1;shadow=1;strokeColor=#666666;fillColor=#FFFFFF;fontColor=#333333;connectable=0;gradientColor=#FFF2CC;fontFamily=Helvetica;fontSize=11;" vertex="1" parent="1">
          <mxGeometry x="520" y="440" width="127" height="87" as="geometry">
            <mxRectangle x="-98" y="-1230" width="99" height="26" as="alternateBounds" />
          </mxGeometry>
        </mxCell>
        <mxCell id="Apn0ms_BU9joJsDJkQgn-7" value="" style="rounded=1;whiteSpace=wrap;html=1;sketch=0;points=[[0,0.5,0,0,0],[1,0.5,0,0,0]];arcSize=50;fontFamily=Helvetica;fontSize=11;fontColor=default;" vertex="1" parent="Apn0ms_BU9joJsDJkQgn-6">
          <mxGeometry x="-13" y="36" width="39.25" height="25" as="geometry" />
        </mxCell>
        <mxCell id="Apn0ms_BU9joJsDJkQgn-8" value="" style="rounded=1;whiteSpace=wrap;html=1;sketch=0;points=[[0,0.5,0,0,0],[1,0.5,0,0,0]];fillColor=#1ba1e2;fontColor=#ffffff;strokeColor=#006EAF;arcSize=50;fontFamily=Helvetica;fontSize=11;" vertex="1" parent="Apn0ms_BU9joJsDJkQgn-6">
          <mxGeometry x="107" y="36" width="35.25" height="25" as="geometry" />
        </mxCell>
        <mxCell id="Apn0ms_BU9joJsDJkQgn-9" style="edgeStyle=orthogonalEdgeStyle;rounded=0;orthogonalLoop=1;jettySize=auto;html=1;exitX=1;exitY=0.5;exitDx=0;exitDy=0;exitPerimeter=0;entryX=0;entryY=0.5;entryDx=0;entryDy=0;entryPerimeter=0;" edge="1" parent="1" source="Apn0ms_BU9joJsDJkQgn-5" target="Apn0ms_BU9joJsDJkQgn-7">
          <mxGeometry relative="1" as="geometry" />
        </mxCell>
        <mxCell id="RybCDVvAgoM5EoYZS_LS-2" style="edgeStyle=orthogonalEdgeStyle;rounded=0;orthogonalLoop=1;jettySize=auto;html=1;entryX=0;entryY=0.5;entryDx=0;entryDy=0;entryPerimeter=0;" edge="1" parent="1" source="RybCDVvAgoM5EoYZS_LS-1" target="Apn0ms_BU9joJsDJkQgn-4">
          <mxGeometry relative="1" as="geometry">
            <Array as="points">
              <mxPoint x="225" y="489" />
            </Array>
          </mxGeometry>
        </mxCell>
        <mxCell id="PjjQ6_94QWNTfwh6HJ0n-1" value="$ grep -v &quot;raw_character&quot;" style="rounded=1;whiteSpace=wrap;html=1;sketch=0;container=1;recursiveResize=0;verticalAlign=top;arcSize=6;fontStyle=1;autosize=0;points=[];absoluteArcSize=1;shadow=1;strokeColor=#666666;fillColor=#FFFFFF;fontColor=#333333;connectable=0;gradientColor=#FFF2CC;fontFamily=Helvetica;fontSize=11;" vertex="1" parent="1">
          <mxGeometry x="730" y="440" width="127" height="87" as="geometry">
            <mxRectangle x="-98" y="-1230" width="99" height="26" as="alternateBounds" />
          </mxGeometry>
        </mxCell>
        <mxCell id="PjjQ6_94QWNTfwh6HJ0n-2" value="" style="rounded=1;whiteSpace=wrap;html=1;sketch=0;points=[[0,0.5,0,0,0],[1,0.5,0,0,0]];arcSize=50;fontFamily=Helvetica;fontSize=11;fontColor=default;" vertex="1" parent="PjjQ6_94QWNTfwh6HJ0n-1">
          <mxGeometry x="-13" y="36" width="39.25" height="25" as="geometry" />
        </mxCell>
        <mxCell id="PjjQ6_94QWNTfwh6HJ0n-3" value="" style="rounded=1;whiteSpace=wrap;html=1;sketch=0;points=[[0,0.5,0,0,0],[1,0.5,0,0,0]];fillColor=#1ba1e2;fontColor=#ffffff;strokeColor=#006EAF;arcSize=50;fontFamily=Helvetica;fontSize=11;" vertex="1" parent="PjjQ6_94QWNTfwh6HJ0n-1">
          <mxGeometry x="107" y="36" width="35.25" height="25" as="geometry" />
        </mxCell>
        <mxCell id="PjjQ6_94QWNTfwh6HJ0n-4" style="edgeStyle=orthogonalEdgeStyle;rounded=0;orthogonalLoop=1;jettySize=auto;html=1;exitX=1;exitY=0.5;exitDx=0;exitDy=0;exitPerimeter=0;entryX=0;entryY=0.5;entryDx=0;entryDy=0;entryPerimeter=0;" edge="1" parent="1" source="Apn0ms_BU9joJsDJkQgn-8" target="PjjQ6_94QWNTfwh6HJ0n-2">
          <mxGeometry relative="1" as="geometry" />
        </mxCell>
        <mxCell id="PjjQ6_94QWNTfwh6HJ0n-5" style="edgeStyle=orthogonalEdgeStyle;rounded=0;orthogonalLoop=1;jettySize=auto;html=1;exitX=1;exitY=0.5;exitDx=0;exitDy=0;exitPerimeter=0;entryX=0;entryY=0.5;entryDx=0;entryDy=0;entryPerimeter=0;" edge="1" parent="1" source="PjjQ6_94QWNTfwh6HJ0n-3" target="Apn0ms_BU9joJsDJkQgn-2">
          <mxGeometry relative="1" as="geometry" />
        </mxCell>
      </root>
    </mxGraphModel>
  </diagram>
  <diagram id="JeOKKricKCzmu5PoCy9M" name="Common Lisp Indenter">
    <mxGraphModel dx="978" dy="591" grid="1" gridSize="10" guides="1" tooltips="1" connect="1" arrows="1" fold="1" page="1" pageScale="1" pageWidth="1100" pageHeight="850" math="0" shadow="0">
      <root>
        <mxCell id="0" />
        <mxCell id="1" parent="0" />
        <mxCell id="9QAsw_f2eyCUnRGIPsyV-1" value="" style="rhombus;whiteSpace=wrap;html=1;rounded=1;fontStyle=1;glass=0;sketch=0;fontSize=12;points=[[0,0.5,0,0,0],[0.5,0,0,0,0],[0.5,1,0,0,0],[1,0.5,0,0,0]];shadow=1;fontFamily=Helvetica;fontColor=default;" parent="1" vertex="1">
          <mxGeometry x="20" y="140" width="40" height="40" as="geometry" />
        </mxCell>
        <mxCell id="9QAsw_f2eyCUnRGIPsyV-2" value="" style="rhombus;whiteSpace=wrap;html=1;rounded=1;fontStyle=1;glass=0;sketch=0;fontSize=12;points=[[0,0.5,0,0,0],[0.5,0,0,0,0],[0.5,1,0,0,0],[1,0.5,0,0,0]];shadow=1;fillColor=#0050ef;fontColor=#ffffff;strokeColor=#001DBC;fontFamily=Helvetica;" parent="1" vertex="1">
          <mxGeometry x="360" y="140" width="40" height="40" as="geometry" />
        </mxCell>
        <mxCell id="9QAsw_f2eyCUnRGIPsyV-3" value="✗" style="rhombus;whiteSpace=wrap;html=1;rounded=1;fillColor=#0050ef;fontColor=#ffffff;strokeColor=#001DBC;fontStyle=1;glass=0;sketch=0;fontSize=12;points=[[0,0.5,0,0,0],[0.5,0,0,0,0],[0.5,1,0,0,0],[1,0.5,0,0,0]];shadow=1;textOpacity=30;" parent="1" vertex="1">
          <mxGeometry x="360" y="260" width="40" height="40" as="geometry" />
        </mxCell>
        <mxCell id="9QAsw_f2eyCUnRGIPsyV-4" value="$ node clindenter.mjs" style="rounded=1;sketch=0;container=1;recursiveResize=0;verticalAlign=top;arcSize=6;fontStyle=1;autosize=0;points=[];absoluteArcSize=1;shadow=1;strokeColor=#001DBC;fillColor=#0050ef;fontColor=#ffffff;fontFamily=Helvetica;fontSize=11;" parent="1" vertex="1">
          <mxGeometry x="130" y="120" width="130" height="110" as="geometry">
            <mxRectangle x="-98" y="-1230" width="99" height="26" as="alternateBounds" />
          </mxGeometry>
        </mxCell>
        <mxCell id="9QAsw_f2eyCUnRGIPsyV-5" value="" style="rounded=1;whiteSpace=wrap;html=1;sketch=0;points=[[0,0.5,0,0,0],[1,0.5,0,0,0]];arcSize=50;fontFamily=Helvetica;fontSize=11;fontColor=default;" parent="9QAsw_f2eyCUnRGIPsyV-4" vertex="1">
          <mxGeometry x="-10" y="27.5" width="39.25" height="25" as="geometry" />
        </mxCell>
        <mxCell id="9QAsw_f2eyCUnRGIPsyV-6" value="" style="rounded=1;whiteSpace=wrap;html=1;sketch=0;points=[[0,0.5,0,0,0],[1,0.5,0,0,0]];fillColor=#1ba1e2;fontColor=#ffffff;strokeColor=#006EAF;arcSize=50;fontFamily=Helvetica;fontSize=11;" parent="9QAsw_f2eyCUnRGIPsyV-4" vertex="1">
          <mxGeometry x="110" y="27.5" width="35.25" height="25" as="geometry" />
        </mxCell>
        <mxCell id="9QAsw_f2eyCUnRGIPsyV-7" value="✗" style="rounded=1;whiteSpace=wrap;html=1;sketch=0;points=[[0,0.5,0,0,0],[1,0.5,0,0,0]];fillColor=#1ba1e2;fontColor=#ffffff;strokeColor=#006EAF;arcSize=50;fontFamily=Helvetica;fontSize=11;textOpacity=30;" parent="9QAsw_f2eyCUnRGIPsyV-4" vertex="1">
          <mxGeometry x="110" y="67.5" width="35.25" height="25" as="geometry" />
        </mxCell>
        <mxCell id="9QAsw_f2eyCUnRGIPsyV-8" style="edgeStyle=orthogonalEdgeStyle;rounded=0;orthogonalLoop=1;jettySize=auto;html=1;exitX=1;exitY=0.5;exitDx=0;exitDy=0;exitPerimeter=0;entryX=0;entryY=0.5;entryDx=0;entryDy=0;entryPerimeter=0;strokeWidth=2;" parent="1" source="9QAsw_f2eyCUnRGIPsyV-1" target="9QAsw_f2eyCUnRGIPsyV-5" edge="1">
          <mxGeometry relative="1" as="geometry" />
        </mxCell>
        <mxCell id="9QAsw_f2eyCUnRGIPsyV-9" style="edgeStyle=orthogonalEdgeStyle;rounded=0;orthogonalLoop=1;jettySize=auto;html=1;exitX=1;exitY=0.5;exitDx=0;exitDy=0;exitPerimeter=0;strokeWidth=2;entryX=0;entryY=0.5;entryDx=0;entryDy=0;entryPerimeter=0;" parent="1" source="9QAsw_f2eyCUnRGIPsyV-6" target="9QAsw_f2eyCUnRGIPsyV-2" edge="1">
          <mxGeometry relative="1" as="geometry">
            <mxPoint x="350" y="160" as="targetPoint" />
          </mxGeometry>
        </mxCell>
        <mxCell id="9QAsw_f2eyCUnRGIPsyV-10" style="edgeStyle=orthogonalEdgeStyle;rounded=1;orthogonalLoop=1;jettySize=auto;html=1;exitX=1;exitY=0.5;exitDx=0;exitDy=0;exitPerimeter=0;entryX=0;entryY=0.5;entryDx=0;entryDy=0;entryPerimeter=0;curved=0;" parent="1" source="9QAsw_f2eyCUnRGIPsyV-7" target="9QAsw_f2eyCUnRGIPsyV-3" edge="1">
          <mxGeometry relative="1" as="geometry">
            <Array as="points">
              <mxPoint x="300" y="200" />
              <mxPoint x="300" y="280" />
            </Array>
          </mxGeometry>
        </mxCell>
      </root>
    </mxGraphModel>
  </diagram>
  <diagram id="Rfl2Ja1lNmSunJClZ7PN" name="Exhale Common Lisp">
    <mxGraphModel dx="978" dy="591" grid="1" gridSize="10" guides="1" tooltips="1" connect="1" arrows="1" fold="1" page="1" pageScale="1" pageWidth="1100" pageHeight="850" math="0" shadow="0">
      <root>
        <mxCell id="0" />
        <mxCell id="1" parent="0" />
        <mxCell id="w7on-5GtEIeKAPdE7Fq6-1" value="" style="rhombus;whiteSpace=wrap;html=1;rounded=1;fontStyle=1;glass=0;sketch=0;fontSize=12;points=[[0,0.5,0,0,0],[0.5,0,0,0,0],[0.5,1,0,0,0],[1,0.5,0,0,0]];shadow=1;fontFamily=Helvetica;fontColor=default;" parent="1" vertex="1">
          <mxGeometry x="40" y="150" width="40" height="40" as="geometry" />
        </mxCell>
        <mxCell id="w7on-5GtEIeKAPdE7Fq6-2" value="" style="rhombus;whiteSpace=wrap;html=1;rounded=1;fontStyle=1;glass=0;sketch=0;fontSize=12;points=[[0,0.5,0,0,0],[0.5,0,0,0,0],[0.5,1,0,0,0],[1,0.5,0,0,0]];shadow=1;fillColor=#0050ef;fontColor=#ffffff;strokeColor=#001DBC;fontFamily=Helvetica;" parent="1" vertex="1">
          <mxGeometry x="880" y="150" width="40" height="40" as="geometry" />
        </mxCell>
        <mxCell id="w7on-5GtEIeKAPdE7Fq6-3" value="✗" style="rhombus;whiteSpace=wrap;html=1;rounded=1;fillColor=#0050ef;fontColor=#ffffff;strokeColor=#001DBC;fontStyle=1;glass=0;sketch=0;fontSize=12;points=[[0,0.5,0,0,0],[0.5,0,0,0,0],[0.5,1,0,0,0],[1,0.5,0,0,0]];shadow=1;textOpacity=30;" parent="1" vertex="1">
          <mxGeometry x="880" y="270" width="40" height="40" as="geometry" />
        </mxCell>
        <mxCell id="w7on-5GtEIeKAPdE7Fq6-10" value="Decode For Common Lisp" style="rounded=1;sketch=0;container=1;recursiveResize=0;verticalAlign=top;arcSize=6;fontStyle=1;autosize=0;points=[];absoluteArcSize=1;shadow=1;strokeColor=#001DBC;fillColor=#0050ef;fontColor=#ffffff;fontFamily=Helvetica;fontSize=11;labelBackgroundColor=none;" parent="1" vertex="1">
          <mxGeometry x="210" y="130" width="130" height="110" as="geometry">
            <mxRectangle x="-98" y="-1230" width="99" height="26" as="alternateBounds" />
          </mxGeometry>
        </mxCell>
        <mxCell id="w7on-5GtEIeKAPdE7Fq6-11" value="" style="rounded=1;whiteSpace=wrap;sketch=0;points=[[0,0.5,0,0,0],[1,0.5,0,0,0]];arcSize=50;fontFamily=Helvetica;fontSize=11;fontColor=default;labelBackgroundColor=none;" parent="w7on-5GtEIeKAPdE7Fq6-10" vertex="1">
          <mxGeometry x="-10" y="27.5" width="39.25" height="25" as="geometry" />
        </mxCell>
        <mxCell id="w7on-5GtEIeKAPdE7Fq6-12" value="" style="rounded=1;whiteSpace=wrap;sketch=0;points=[[0,0.5,0,0,0],[1,0.5,0,0,0]];fillColor=#1ba1e2;fontColor=#ffffff;strokeColor=#006EAF;arcSize=50;fontFamily=Helvetica;fontSize=11;labelBackgroundColor=none;" parent="w7on-5GtEIeKAPdE7Fq6-10" vertex="1">
          <mxGeometry x="110" y="27.5" width="35.25" height="25" as="geometry" />
        </mxCell>
        <mxCell id="w7on-5GtEIeKAPdE7Fq6-13" value="✗" style="rounded=1;whiteSpace=wrap;sketch=0;points=[[0,0.5,0,0,0],[1,0.5,0,0,0]];fillColor=#1ba1e2;fontColor=#ffffff;strokeColor=#006EAF;arcSize=50;fontFamily=Helvetica;fontSize=11;textOpacity=30;labelBackgroundColor=none;" parent="w7on-5GtEIeKAPdE7Fq6-10" vertex="1">
          <mxGeometry x="110" y="67.5" width="35.25" height="25" as="geometry" />
        </mxCell>
        <mxCell id="w7on-5GtEIeKAPdE7Fq6-14" style="edgeStyle=orthogonalEdgeStyle;rounded=1;orthogonalLoop=1;jettySize=auto;html=1;exitX=1;exitY=0.5;exitDx=0;exitDy=0;exitPerimeter=0;entryX=0;entryY=0.5;entryDx=0;entryDy=0;entryPerimeter=0;curved=0;dashed=1;dashPattern=1 4;" parent="1" source="w7on-5GtEIeKAPdE7Fq6-13" target="w7on-5GtEIeKAPdE7Fq6-3" edge="1">
          <mxGeometry relative="1" as="geometry">
            <Array as="points">
              <mxPoint x="400" y="210" />
              <mxPoint x="400" y="290" />
            </Array>
          </mxGeometry>
        </mxCell>
        <mxCell id="w7on-5GtEIeKAPdE7Fq6-15" value="Uninternalize" style="rounded=1;sketch=0;container=1;recursiveResize=0;verticalAlign=top;arcSize=6;fontStyle=1;autosize=0;points=[];absoluteArcSize=1;shadow=1;strokeColor=#001DBC;fillColor=#0050ef;fontColor=#ffffff;fontFamily=Helvetica;fontSize=11;labelBackgroundColor=none;" parent="1" vertex="1">
          <mxGeometry x="430" y="130" width="130" height="110" as="geometry">
            <mxRectangle x="-98" y="-1230" width="99" height="26" as="alternateBounds" />
          </mxGeometry>
        </mxCell>
        <mxCell id="w7on-5GtEIeKAPdE7Fq6-16" value="" style="rounded=1;whiteSpace=wrap;sketch=0;points=[[0,0.5,0,0,0],[1,0.5,0,0,0]];arcSize=50;fontFamily=Helvetica;fontSize=11;fontColor=default;labelBackgroundColor=none;" parent="w7on-5GtEIeKAPdE7Fq6-15" vertex="1">
          <mxGeometry x="-10" y="27.5" width="39.25" height="25" as="geometry" />
        </mxCell>
        <mxCell id="w7on-5GtEIeKAPdE7Fq6-17" value="" style="rounded=1;whiteSpace=wrap;sketch=0;points=[[0,0.5,0,0,0],[1,0.5,0,0,0]];fillColor=#1ba1e2;fontColor=#ffffff;strokeColor=#006EAF;arcSize=50;fontFamily=Helvetica;fontSize=11;labelBackgroundColor=none;" parent="w7on-5GtEIeKAPdE7Fq6-15" vertex="1">
          <mxGeometry x="110" y="27.5" width="35.25" height="25" as="geometry" />
        </mxCell>
        <mxCell id="w7on-5GtEIeKAPdE7Fq6-18" value="✗" style="rounded=1;whiteSpace=wrap;sketch=0;points=[[0,0.5,0,0,0],[1,0.5,0,0,0]];fillColor=#1ba1e2;fontColor=#ffffff;strokeColor=#006EAF;arcSize=50;fontFamily=Helvetica;fontSize=11;textOpacity=30;labelBackgroundColor=none;" parent="w7on-5GtEIeKAPdE7Fq6-15" vertex="1">
          <mxGeometry x="110" y="67.5" width="35.25" height="25" as="geometry" />
        </mxCell>
        <mxCell id="w7on-5GtEIeKAPdE7Fq6-19" style="edgeStyle=orthogonalEdgeStyle;rounded=1;orthogonalLoop=1;jettySize=auto;html=1;exitX=1;exitY=0.5;exitDx=0;exitDy=0;exitPerimeter=0;entryX=0;entryY=0.5;entryDx=0;entryDy=0;entryPerimeter=0;curved=0;strokeWidth=2;" parent="1" source="w7on-5GtEIeKAPdE7Fq6-12" target="w7on-5GtEIeKAPdE7Fq6-16" edge="1">
          <mxGeometry relative="1" as="geometry" />
        </mxCell>
        <mxCell id="w7on-5GtEIeKAPdE7Fq6-20" style="edgeStyle=orthogonalEdgeStyle;rounded=1;orthogonalLoop=1;jettySize=auto;html=1;exitX=1;exitY=0.5;exitDx=0;exitDy=0;exitPerimeter=0;entryX=0;entryY=0.5;entryDx=0;entryDy=0;entryPerimeter=0;curved=0;dashed=1;dashPattern=1 4;" parent="1" source="w7on-5GtEIeKAPdE7Fq6-18" target="w7on-5GtEIeKAPdE7Fq6-3" edge="1">
          <mxGeometry relative="1" as="geometry">
            <Array as="points">
              <mxPoint x="620" y="210" />
              <mxPoint x="620" y="290" />
            </Array>
          </mxGeometry>
        </mxCell>
        <mxCell id="w7on-5GtEIeKAPdE7Fq6-26" style="edgeStyle=orthogonalEdgeStyle;rounded=1;orthogonalLoop=1;jettySize=auto;html=1;entryX=0;entryY=0.5;entryDx=0;entryDy=0;entryPerimeter=0;strokeWidth=2;curved=0;" parent="1" source="w7on-5GtEIeKAPdE7Fq6-1" target="w7on-5GtEIeKAPdE7Fq6-11" edge="1">
          <mxGeometry relative="1" as="geometry">
            <mxPoint x="125.25" y="170" as="sourcePoint" />
          </mxGeometry>
        </mxCell>
        <mxCell id="w7on-5GtEIeKAPdE7Fq6-28" value="Common Lisp Indenter" style="rounded=1;sketch=0;container=1;recursiveResize=0;verticalAlign=top;arcSize=6;fontStyle=1;autosize=0;points=[];absoluteArcSize=1;shadow=1;strokeColor=#001DBC;fillColor=#0050ef;fontColor=#ffffff;fontFamily=Helvetica;fontSize=11;labelBackgroundColor=none;" parent="1" vertex="1">
          <mxGeometry x="650" y="130" width="130" height="110" as="geometry">
            <mxRectangle x="-98" y="-1230" width="99" height="26" as="alternateBounds" />
          </mxGeometry>
        </mxCell>
        <mxCell id="w7on-5GtEIeKAPdE7Fq6-29" value="" style="rounded=1;whiteSpace=wrap;sketch=0;points=[[0,0.5,0,0,0],[1,0.5,0,0,0]];arcSize=50;fontFamily=Helvetica;fontSize=11;fontColor=default;labelBackgroundColor=none;" parent="w7on-5GtEIeKAPdE7Fq6-28" vertex="1">
          <mxGeometry x="-10" y="27.5" width="39.25" height="25" as="geometry" />
        </mxCell>
        <mxCell id="w7on-5GtEIeKAPdE7Fq6-30" value="" style="rounded=1;whiteSpace=wrap;sketch=0;points=[[0,0.5,0,0,0],[1,0.5,0,0,0]];fillColor=#1ba1e2;fontColor=#ffffff;strokeColor=#006EAF;arcSize=50;fontFamily=Helvetica;fontSize=11;labelBackgroundColor=none;" parent="w7on-5GtEIeKAPdE7Fq6-28" vertex="1">
          <mxGeometry x="110" y="27.5" width="35.25" height="25" as="geometry" />
        </mxCell>
        <mxCell id="w7on-5GtEIeKAPdE7Fq6-31" value="✗" style="rounded=1;whiteSpace=wrap;sketch=0;points=[[0,0.5,0,0,0],[1,0.5,0,0,0]];fillColor=#1ba1e2;fontColor=#ffffff;strokeColor=#006EAF;arcSize=50;fontFamily=Helvetica;fontSize=11;textOpacity=30;labelBackgroundColor=none;" parent="w7on-5GtEIeKAPdE7Fq6-28" vertex="1">
          <mxGeometry x="110" y="67.5" width="35.25" height="25" as="geometry" />
        </mxCell>
        <mxCell id="w7on-5GtEIeKAPdE7Fq6-32" style="edgeStyle=orthogonalEdgeStyle;rounded=1;orthogonalLoop=1;jettySize=auto;html=1;exitX=1;exitY=0.5;exitDx=0;exitDy=0;exitPerimeter=0;entryX=0;entryY=0.5;entryDx=0;entryDy=0;entryPerimeter=0;strokeWidth=2;curved=0;" parent="1" source="w7on-5GtEIeKAPdE7Fq6-17" target="w7on-5GtEIeKAPdE7Fq6-29" edge="1">
          <mxGeometry relative="1" as="geometry" />
        </mxCell>
        <mxCell id="w7on-5GtEIeKAPdE7Fq6-33" style="edgeStyle=orthogonalEdgeStyle;rounded=1;orthogonalLoop=1;jettySize=auto;html=1;exitX=1;exitY=0.5;exitDx=0;exitDy=0;exitPerimeter=0;entryX=0;entryY=0.5;entryDx=0;entryDy=0;entryPerimeter=0;strokeWidth=2;curved=0;" parent="1" source="w7on-5GtEIeKAPdE7Fq6-30" target="w7on-5GtEIeKAPdE7Fq6-2" edge="1">
          <mxGeometry relative="1" as="geometry" />
        </mxCell>
        <mxCell id="w7on-5GtEIeKAPdE7Fq6-34" style="edgeStyle=orthogonalEdgeStyle;rounded=1;orthogonalLoop=1;jettySize=auto;html=1;exitX=1;exitY=0.5;exitDx=0;exitDy=0;exitPerimeter=0;entryX=0;entryY=0.5;entryDx=0;entryDy=0;entryPerimeter=0;curved=0;dashed=1;dashPattern=1 4;" parent="1" source="w7on-5GtEIeKAPdE7Fq6-31" target="w7on-5GtEIeKAPdE7Fq6-3" edge="1">
          <mxGeometry relative="1" as="geometry" />
        </mxCell>
      </root>
    </mxGraphModel>
  </diagram>
</mxfile>
